<svg xmlns="http://www.w3.org/2000/svg" xmlns:xlink="http://www.w3.org/1999/xlink" width="493" height="273" viewBox="0 0 493 273">
  <defs>
    <clipPath id="clip-festivalcontact">
      <rect width="493" height="273"/>
    </clipPath>
  </defs>
  <g id="festivalcontact" clip-path="url(#clip-festivalcontact)">
    <rect width="493" height="273" fill="#fff"/>
    <g id="Groupe_21" data-name="Groupe 21" transform="translate(-55.793 -113.793)">
      <g id="Groupe_5" data-name="Groupe 5">
        <g id="Groupe_4" data-name="Groupe 4" transform="translate(605.661 0) rotate(90)">
          <g id="Groupe_3" data-name="Groupe 3" transform="translate(112.667 55.793)">
            <g id="Groupe_2" data-name="Groupe 2">
              <g id="Groupe_1" data-name="Groupe 1">
                <rect id="Rectangle_1" data-name="Rectangle 1" width="274.665" height="494.075" fill="#7673fe"/>
              </g>
            </g>
          </g>
        </g>
      </g>
      <g id="Groupe_20" data-name="Groupe 20" transform="translate(162.536 -56.875)">
        <g id="Groupe_22" data-name="Groupe 22">
          <path id="Tracé_1" data-name="Tracé 1" d="M290.5,10.5c-57.19,50.7-71.491,97.365-80,127.5-12,42.5-29.438,60.879-58,67-21,4.5-30.073,2.9-45.073-8.6" transform="translate(-213.652 199.316)" fill="none" stroke="#000" stroke-miterlimit="10" stroke-width="0.5"/>
          <path id="Tracé_2" data-name="Tracé 2" d="M295.465,16.148c-57.191,50.7-71.491,97.365-80,127.5-12,42.5-29.438,60.879-58,67-21,4.5-34.769,2.49-49.769-9.01" transform="translate(-213.652 199.316)" fill="none" stroke="#000" stroke-miterlimit="10" stroke-width="0.5"/>
          <path id="Tracé_3" data-name="Tracé 3" d="M300.43,21.8c-57.191,50.7-71.492,97.365-80,127.5-12,42.5-29.438,60.879-58,67-21,4.5-37.5,1.5-52.5-10" transform="translate(-213.652 199.316)" fill="none" stroke="#000" stroke-miterlimit="10" stroke-width="0.5"/>
          <path id="Tracé_4" data-name="Tracé 4" d="M305.395,27.444c-57.191,50.7-71.492,97.365-80,127.5-12,42.5-29.437,60.879-58,67-21,4.5-43.708.568-59.159-13.676" transform="translate(-213.652 199.316)" fill="none" stroke="#000" stroke-miterlimit="10" stroke-width="0.5"/>
          <path id="Tracé_5" data-name="Tracé 5" d="M310.359,33.092c-57.19,50.7-71.491,97.365-80,127.5-12,42.5-29.437,60.879-58,67-21,4.5-46.859.908-63.359-16.092" transform="translate(-213.652 199.316)" fill="none" stroke="#000" stroke-miterlimit="10" stroke-width="0.5"/>
          <path id="Tracé_6" data-name="Tracé 6" d="M387.685,233.248c-18.4-.969-37.777,5.328-51.339,18.4C319.4,269.085,311.8,286.446,307.29,309.759c-18.71,96.635-131.021,46.283-138.463,127.408" transform="translate(0 6.962)" fill="none" stroke="#000" stroke-miterlimit="10" stroke-width="0.5"/>
          <path id="Tracé_7" data-name="Tracé 7" d="M387.685,227.207c-18.776-1-38.541,5.509-52.376,19.03-17.291,18.025-25.039,35.976-29.644,60.081C286.577,406.235,170.2,360.68,162.612,444.562" transform="translate(0 -0.347)" fill="none" stroke="#000" stroke-miterlimit="10" stroke-width="0.5"/>
          <path id="Tracé_8" data-name="Tracé 8" d="M156.432,442.113h0c6.83-83.949,124.595-43.321,143.518-143.245,4.565-24.106,12.245-42.058,29.385-60.084,13.715-13.522,33.307-20.033,51.92-19.031l6.43.749" transform="translate(0 -0.376)" fill="none" stroke="#000" stroke-miterlimit="10" stroke-width="0.5"/>
          <path id="Tracé_9" data-name="Tracé 9" d="M149.213,444.961a47.682,47.682,0,0,1,.581-9.184c16.571-82.784,125.593-43.475,144.373-143.754,4.53-24.192,12.152-42.208,29.163-60.3,13.611-13.57,33.037-18.525,51.526-19.1,4.081-.127,12.831,1.884,12.831,1.884" transform="translate(0 -1.236)" fill="none" stroke="#000" stroke-miterlimit="10" stroke-width="0.5"/>
          <path id="Tracé_10" data-name="Tracé 10" d="M143,443.16a94.841,94.841,0,0,1,1.5-17.24c15.61-74.946,119.029-43.1,136.826-142.5,4.295-23.981,11.517-41.839,27.639-59.772a62.5,62.5,0,0,1,48.833-18.932c4.093.283,29.891,1.778,29.891,1.778" transform="translate(0 0.883)" fill="none" stroke="#000" stroke-miterlimit="10" stroke-width="0.5"/>
          <path id="Tracé_11" data-name="Tracé 11" d="M181.977,455.67c5.681,9.9,18.156,14.6,28.5,17.68,14.919,4.44,30.506,6.592,45.968,8.075,28.254,2.71,57,3.469,85.284.781,21.668-2.059,45.677-6.316,62.615-21.118,17.929-15.668,24.029-39.2,23.877-62.286-.175-26.323-6.195-52.679-12.246-78.164-3.655-15.385-8.432-30.389-12.513-45.644-2.181-8.15-2.933-17.318-7.29-24.656a60.23,60.23,0,0,1,6.181.63c2.627.416,7.12,1.353,9.051-1.062.657-.821-1.038-2.546-1.812-1.812-2.629,2.492-10.267-.659-13.494-1.2-.873-.145-1.767-.252-2.668-.342-.078-.087-.144-.178-.222-.264-.72-.788-3.6-2.047-3.56.024a81.428,81.428,0,0,0-9.878.391c-10.148.97-20.137,3.718-28.542,9.687-14.24,10.115-21.714,26.1-25.748,42.671-5.259,21.619-4.466,45.214-17.724,64.1-13.1,18.656-33.656,30.6-55.18,37.114-19.117,5.786-40.894,8.607-57.1,21.205C185.961,428.877,174.853,443.258,181.977,455.67Z" fill="#fff"/>
          <g id="Groupe_6" data-name="Groupe 6" transform="translate(2.92 79.522)">
            <path id="Tracé_12" data-name="Tracé 12" d="M187.866,276.117a2.064,2.064,0,0,1-3.087.263,2.377,2.377,0,0,1-.136-3.252c.443-.538,1.754-1.7,2.564-1.585.205-.459.992.283,1.089.659C188.626,273.478,188.765,275.044,187.866,276.117Z" fill="#f3ba00"/>
            <path id="Tracé_13" data-name="Tracé 13" d="M197.774,279.844a2.062,2.062,0,0,1-3.075.365,2.375,2.375,0,0,1-.244-3.246c.425-.552,1.7-1.757,2.511-1.669.189-.465,1,.25,1.11.624C198.447,277.182,198.637,278.743,197.774,279.844Z" fill="#f3ba00"/>
            <path id="Tracé_14" data-name="Tracé 14" d="M197.684,257.911a2.06,2.06,0,0,0-1.478-2.719,2.379,2.379,0,0,0-2.794,1.675c-.205.665-.458,2.4.086,3.011-.271.423.782.67,1.15.545C195.9,260,197.282,259.249,197.684,257.911Z" fill="#f3ba00"/>
            <path id="Tracé_15" data-name="Tracé 15" d="M206.25,264.126a2.058,2.058,0,0,0-1.387-2.765,2.379,2.379,0,0,0-2.848,1.582c-.227.658-.534,2.38-.013,3.012-.286.415.76.7,1.131.583C204.394,266.153,205.8,265.452,206.25,264.126Z" fill="#f3ba00"/>
            <path id="Tracé_16" data-name="Tracé 16" d="M323.937,319.858c-.246-13.267-10.675-27.541-24.675-21.476-3.217,1.393-6.754,3.043-10.15,2.066-2.975-.856-5.3-2.962-7.476-5.092-3.995-3.91-6.564-7.7-12.7-7.209-6.879.546-13.2,8.939-15.9,15.143-4.157,9.564-4.4,18.364,2.343,22.206,3.485,1.984,7.055,1.876,11.051,1.59,2.06-.149,4.407-.348,6.26.617,2.575,1.34,4.18,3.658,5.684,6.139,3.949,6.512,7.948,11.525,14.965,14.4,4.72,1.934,11.129.613,15.667-2.021A30.433,30.433,0,0,0,323.937,319.858Z" fill="#f3ba00"/>
            <path id="Tracé_17" data-name="Tracé 17" d="M284.879,319.7A8.727,8.727,0,0,1,280,322.561c-4.92.926-9.542-3.519-10.711-7.922a9.255,9.255,0,0,1,1.359-7.575,6.935,6.935,0,0,1,3.709-3.2,8.591,8.591,0,0,1,3.3-.827A9.757,9.757,0,0,1,284.879,319.7Z" fill="#fff"/>
            <path id="Tracé_18" data-name="Tracé 18" d="M283.418,318.14a6.789,6.789,0,0,1-3.8,2.227c-3.825.721-7.421-2.736-8.329-6.161a7.2,7.2,0,0,1,1.056-5.89,5.394,5.394,0,0,1,2.886-2.485,6.674,6.674,0,0,1,2.567-.642A7.587,7.587,0,0,1,283.418,318.14Z"/>
            <path id="Tracé_19" data-name="Tracé 19" d="M308.424,321.584a13.5,13.5,0,0,0-2.784-1.842c-.132-.09-6.519,11.791-6.283,11.921.818.448,2.228,1.215,3.046,1.663C302.525,333.393,308.488,321.654,308.424,321.584Z"/>
            <path id="Tracé_20" data-name="Tracé 20" d="M263.068,299.5c-3.368-3.87-9.4-5.793-13.863-8.114l-16.671-8.677c-8.058-4.194-16.018-8.846-24.349-12.553-.727-.771-17.656-13.507-18.575-13.216s-7.551,11.709-7.284,12.721,21.43,9.062,22.516,9.336c7.379,4.613,15.255,8.52,22.828,12.732l16.424,9.134c4.4,2.445,9.323,6.42,14.411,7.1C258.836,308.008,263.344,299.815,263.068,299.5Z" fill="#ffae39"/>
            <path id="Tracé_21" data-name="Tracé 21" d="M302.711,330.137c-18.935-9.813-37.691-20.273-56.483-30.384-18.918-10.182-38.011-20.189-56.8-30.588-.47-.26-.949-1.145-.256-.782,19.023,9.946,37.881,20.369,56.79,30.546,18.8,10.118,37.858,20.022,56.493,30.415C302.922,329.605,303.42,330.505,302.711,330.137Z" fill="#fff"/>
            <path id="Tracé_22" data-name="Tracé 22" d="M303.72,328.312c-17.646-9.12-35.1-18.879-52.6-28.3-17.619-9.482-35.408-18.788-52.9-28.488-.439-.242-.865-1.1-.218-.763,17.723,9.248,35.279,18.971,52.889,28.447,17.508,9.424,35.268,18.628,52.612,28.328C303.935,327.783,304.381,328.655,303.72,328.312Z" fill="#fff"/>
            <path id="Tracé_23" data-name="Tracé 23" d="M304.709,326.477c-17.644-9.12-35.1-18.88-52.6-28.3-17.62-9.481-35.409-18.788-52.9-28.487-.436-.243-.863-1.1-.217-.763,17.724,9.247,35.281,18.969,52.89,28.447C269.385,306.8,287.144,316,304.488,325.7,304.924,325.948,305.371,326.819,304.709,326.477Z" fill="#fff"/>
            <path id="Tracé_24" data-name="Tracé 24" d="M305.679,324.63c-18.978-9.836-37.777-20.319-56.612-30.454-18.962-10.2-38.1-20.236-56.932-30.657-.471-.261-.952-1.146-.256-.782,19.065,9.969,37.969,20.415,56.92,30.615,18.842,10.141,37.943,20.068,56.62,30.485C305.89,324.1,306.39,325,305.679,324.63Z" fill="#fff"/>
          </g>
          <g id="Groupe_10" data-name="Groupe 10" transform="translate(36.277 52.943)">
            <path id="Tracé_43" data-name="Tracé 43" d="M149.631,255.715c19.1,32.229,68.981,11.013,57.227-29.291a29.137,29.137,0,0,0-9.945-14.885c-8.136-6.065-18.654-8.856-28.538-5.712A33.729,33.729,0,0,0,149.631,255.715Z" fill="#ffae39"/>
            <path id="Tracé_44" data-name="Tracé 44" d="M173.029,203.809c.044-.372.562-.334.8-.25a1.5,1.5,0,0,1,.914.85,14.655,14.655,0,0,1,.436,1.4,1.534,1.534,0,0,1-.154,1.371c-.5.55-1.378-.175-1.672-.592a3.016,3.016,0,0,1-.471-1.578A5.123,5.123,0,0,1,173.029,203.809Z"/>
            <path id="Tracé_45" data-name="Tracé 45" d="M180.367,268.248c.042-.371.562-.333.8-.251a1.492,1.492,0,0,1,.915.851c.149.477.331.908.437,1.4a1.541,1.541,0,0,1-.154,1.371c-.5.548-1.38-.178-1.672-.593a3,3,0,0,1-.473-1.577A5.2,5.2,0,0,1,180.367,268.248Z"/>
            <path id="Tracé_46" data-name="Tracé 46" d="M190.584,206c.222-.3.653-.009.819.182a1.5,1.5,0,0,1,.366,1.195c-.109.487-.166.95-.323,1.433-.146.442-.345.959-.82,1.113-.7.225-1.106-.843-1.151-1.35a3.046,3.046,0,0,1,.379-1.6A5.122,5.122,0,0,1,190.584,206Z"/>
            <path id="Tracé_47" data-name="Tracé 47" d="M164.717,265.475c.223-.3.654-.007.82.186a1.485,1.485,0,0,1,.365,1.191c-.108.489-.165.95-.322,1.435-.144.441-.346.958-.82,1.111-.705.227-1.1-.843-1.152-1.35a3.039,3.039,0,0,1,.38-1.6A5.222,5.222,0,0,1,164.717,265.475Z"/>
            <path id="Tracé_48" data-name="Tracé 48" d="M204.687,216.676c.345-.148.572.319.618.569a1.494,1.494,0,0,1-.278,1.216c-.339.369-.622.742-1,1.083a1.534,1.534,0,0,1-1.263.551c-.724-.157-.537-1.283-.324-1.745a3.048,3.048,0,0,1,1.131-1.2A5.139,5.139,0,0,1,204.687,216.676Z"/>
            <path id="Tracé_49" data-name="Tracé 49" d="M152.551,255.248c.344-.147.569.321.618.571a1.49,1.49,0,0,1-.281,1.215,13.913,13.913,0,0,1-1,1.082,1.527,1.527,0,0,1-1.262.552c-.726-.156-.537-1.283-.325-1.745a3.054,3.054,0,0,1,1.13-1.2A5.339,5.339,0,0,1,152.551,255.248Z"/>
            <path id="Tracé_50" data-name="Tracé 50" d="M211.565,232.972c.373.046.334.563.251.8a1.492,1.492,0,0,1-.848.914c-.48.15-.909.331-1.407.438a1.544,1.544,0,0,1-1.372-.153c-.548-.5.178-1.382.593-1.673a3.011,3.011,0,0,1,1.578-.472A5.164,5.164,0,0,1,211.565,232.972Z"/>
            <path id="Tracé_51" data-name="Tracé 51" d="M147.128,240.31c.371.044.333.561.249.8a1.492,1.492,0,0,1-.849.912c-.478.149-.908.333-1.4.437a1.539,1.539,0,0,1-1.371-.154c-.55-.5.177-1.379.593-1.672a3,3,0,0,1,1.577-.471A5.145,5.145,0,0,1,147.128,240.31Z"/>
            <path id="Tracé_52" data-name="Tracé 52" d="M209.374,250.525c.3.226.008.654-.182.821a1.5,1.5,0,0,1-1.2.367c-.489-.11-.954-.168-1.436-.325-.441-.144-.956-.343-1.111-.819-.224-.7.843-1.106,1.35-1.151a3.029,3.029,0,0,1,1.6.381A5.205,5.205,0,0,1,209.374,250.525Z"/>
            <path id="Tracé_53" data-name="Tracé 53" d="M149.9,224.661c.3.224.007.653-.187.82a1.483,1.483,0,0,1-1.193.364,14.243,14.243,0,0,1-1.435-.322c-.439-.144-.957-.345-1.109-.819-.226-.706.843-1.106,1.349-1.151a3,3,0,0,1,1.6.379A5.193,5.193,0,0,1,149.9,224.661Z"/>
            <path id="Tracé_54" data-name="Tracé 54" d="M198.7,264.631c.146.345-.32.57-.57.619a1.491,1.491,0,0,1-1.217-.279c-.37-.34-.741-.619-1.08-1a1.529,1.529,0,0,1-.551-1.265c.155-.725,1.28-.536,1.742-.323a2.979,2.979,0,0,1,1.2,1.13A5.16,5.16,0,0,1,198.7,264.631Z"/>
            <path id="Tracé_55" data-name="Tracé 55" d="M160.127,212.5c.147.343-.32.568-.571.616a1.482,1.482,0,0,1-1.215-.28,14.687,14.687,0,0,1-1.081-1,1.533,1.533,0,0,1-.553-1.264c.158-.725,1.283-.536,1.744-.323a3.024,3.024,0,0,1,1.2,1.13A5.167,5.167,0,0,1,160.127,212.5Z"/>
            <path id="Tracé_56" data-name="Tracé 56" d="M151.249,254.649c17.956,30.3,64.846,10.351,53.8-27.534a27.389,27.389,0,0,0-9.347-13.993c-7.65-5.7-17.537-8.325-26.829-5.369A31.707,31.707,0,0,0,151.249,254.649Z" fill="#fff"/>
            <path id="Tracé_57" data-name="Tracé 57" d="M172,241c3.28,5.532,11.844,1.89,9.826-5.03a5.022,5.022,0,0,0-1.708-2.557,5.482,5.482,0,0,0-4.9-.979A5.792,5.792,0,0,0,172,241Z" fill="#ffae39"/>
            <g id="Groupe_8" data-name="Groupe 8">
              <path id="Tracé_58" data-name="Tracé 58" d="M97.276,209.892c4.747-.937,11.139,2.758,15.552,4.387,6.195,2.286,12.3,4.784,18.444,7.2,6.171,2.43,12.261,5.041,18.322,7.729,4.166,1.849,8.518,4.617,12.94,5.718.688.17,1.607,1.678.389,1.6-3.773-.233-7.969-3.053-11.33-4.555q-8.988-4.024-18.231-7.434c-6.007-2.224-12.174-4.017-18.3-5.873-5.73-1.733-12.832-2.823-17.585-6.587C96.868,211.6,96,210.143,97.276,209.892Z" fill="#ff813b"/>
              <path id="Tracé_59" data-name="Tracé 59" d="M161.155,237.376a2.491,2.491,0,0,0,2.252.777,2.589,2.589,0,0,0,.47-.184,1.327,1.327,0,0,0,.893-1,2.157,2.157,0,0,0-.33-1.345c-.017-.031-.034-.064-.053-.1s-.046-.073-.072-.108a3.939,3.939,0,0,0-.489-.6,1.829,1.829,0,0,0-.813-.5,2.331,2.331,0,0,0-1.068-.317,1.341,1.341,0,0,0-1.449,1.063A2.479,2.479,0,0,0,161.155,237.376Z"/>
            </g>
            <g id="Groupe_9" data-name="Groupe 9">
              <path id="Tracé_60" data-name="Tracé 60" d="M234.9,187c-4.836.154-10.233,5.193-14.167,7.772-5.523,3.618-10.914,7.425-16.355,11.162-5.466,3.756-10.812,7.668-16.112,11.651-3.645,2.737-7.264,6.413-11.327,8.479-.63.32-1.188,2-.018,1.649,3.623-1.077,7.08-4.765,10.016-6.986q7.854-5.941,16.1-11.342c5.354-3.517,10.958-6.652,16.511-9.836,5.194-2.976,11.869-5.636,15.654-10.372C235.679,188.575,236.2,186.963,234.9,187Z" fill="#ff813b"/>
              <path id="Tracé_61" data-name="Tracé 61" d="M178.952,225.737a1.342,1.342,0,0,0-1.649-.711,2.374,2.374,0,0,0-.97.551,1.837,1.837,0,0,0-.679.674,3.935,3.935,0,0,0-.341.695c-.017.04-.03.081-.046.12s-.02.072-.03.107a2.155,2.155,0,0,0-.02,1.385,1.323,1.323,0,0,0,1.1.775,2.559,2.559,0,0,0,.5.074,2.589,2.589,0,0,0,2.14-3.67Z"/>
            </g>
          </g>
          <g id="Groupe_16" data-name="Groupe 16" transform="translate(-50.728 20.848)">
            <path id="Tracé_62" data-name="Tracé 62" d="M331.176,301.511c-1.473,5.261-2.791,10.308-.612,15.553a20.093,20.093,0,0,0,12.045,10.881c11.963,3.83,24.768-1.8,31.8-11.765,7.469-10.587,9.027-24.53,9.928-37.089.521-7.266-.228-14.7,1.113-21.891a24.319,24.319,0,0,1,4.6-11.028c1.268-1.574,3.539-4.681,5.717-2.771.942,1.407,1.9,2.8,2.832,4.207.113.169.312.418.55.329q.7-.263,1.4-.528c.3-.114.22-.571.141-.795-1.548-4.393-2.171-10.333-8.316-11.121-6.03-.774-10.411,6.486-12.239,11.1-4.561,11.52-3.766,23.656-5.68,35.649-.684,4.286-1.568,9.276-4.316,12.79A7.427,7.427,0,0,1,359,296c-3.613-3.332-1.505-9.15.056-13,1.4-3.455,5.347-9.227,3.471-11.31.068-.338.232-.175,0,0a.431.431,0,0,0-.661-.094c-5.291,4.558-11.27,8.168-16.842,12.353a35.943,35.943,0,0,1-8.462,5.225,13.435,13.435,0,0,1-3.647.983c-.314.027-2.365-.108-2.322.324-.025-.252-.492-1.414-.909-.89-.665.834-2.169-.2-2.779-.475C326.241,292.488,333.432,293.459,331.176,301.511Z" fill="#f3ba00"/>
            <path id="Tracé_63" data-name="Tracé 63" d="M344.3,273.91a52.984,52.984,0,0,0-11.729,7.231c-2.249,1.9-5.41,4.5-5.67,7.68-.54,6.6,13.959,2.6,16.016,1.907,7.653-2.582,15.87-7.318,19.285-15.123C366.694,265.345,347.818,272.247,344.3,273.91Z" fill="#ffae39"/>
            <path id="Tracé_64" data-name="Tracé 64" d="M344.407,275.284a43.032,43.032,0,0,0-9.527,5.874c-1.827,1.541-4.394,3.656-4.605,6.238-.439,5.363,11.337,2.113,13.009,1.55,6.217-2.1,12.892-5.945,15.665-12.285C362.594,268.327,347.262,273.933,344.407,275.284Z" fill="#ff970d"/>
            <g id="Groupe_11" data-name="Groupe 11">
              <path id="Tracé_65" data-name="Tracé 65" d="M345.787,281.266c1.782-.843,8.945-3.519,12.1-2.6-3.187,5.158-9.072,8.413-14.6,10.28-1.057.356-6.162,1.786-9.657,1.43a14.873,14.873,0,0,1,3.576-3.818A38.805,38.805,0,0,1,345.787,281.266Z" fill="#e87e00"/>
            </g>
            <g id="Groupe_12" data-name="Groupe 12">
              <path id="Tracé_66" data-name="Tracé 66" d="M362.527,271.693c.068-.338.232-.175,0,0Z" fill="none"/>
              <path id="Tracé_67" data-name="Tracé 67" d="M400.692,246.614c.079.224.158.681-.141.795q-.7.267-1.4.528c-.238.089-.437-.16-.55-.329-.655-.993-1.325-1.977-1.993-2.965.921-.765,1.78-1.616,2.723-2.363C399.82,243.74,400.211,245.252,400.692,246.614Z"/>
            </g>
            <g id="Groupe_13" data-name="Groupe 13">
              <path id="Tracé_68" data-name="Tracé 68" d="M373.257,260.238a8.353,8.353,0,0,1,4.7,2.181c.207.213.678,1.267.03,1.27a7.589,7.589,0,0,1-4.692-1.919C372.932,261.488,372.3,260.034,373.257,260.238Z" fill="#fff"/>
              <path id="Tracé_69" data-name="Tracé 69" d="M372.063,258.436c.723-.925,1.747-.3,2.046.618a2.271,2.271,0,0,1,.091.563.4.4,0,0,1,.036.141,4.926,4.926,0,0,1-.9,3.11c-.764.909-1.875-.114-2.079-.951A4.428,4.428,0,0,1,372.063,258.436Z" fill="#ff813b"/>
            </g>
            <g id="Groupe_14" data-name="Groupe 14">
              <path id="Tracé_70" data-name="Tracé 70" d="M372.642,266.754a8.375,8.375,0,0,1,4.7,2.182c.207.215.678,1.268.03,1.271a7.592,7.592,0,0,1-4.692-1.919C372.318,268.006,371.686,266.55,372.642,266.754Z" fill="#fff"/>
              <path id="Tracé_71" data-name="Tracé 71" d="M371.448,264.953c.722-.925,1.747-.3,2.045.621a2.138,2.138,0,0,1,.091.56.4.4,0,0,1,.037.141,4.927,4.927,0,0,1-.9,3.11c-.763.909-1.876-.113-2.079-.951A4.43,4.43,0,0,1,371.448,264.953Z" fill="#ff813b"/>
            </g>
            <g id="Groupe_15" data-name="Groupe 15">
              <path id="Tracé_72" data-name="Tracé 72" d="M371.985,273.335a8.35,8.35,0,0,1,4.778,1.993c.216.2.729,1.237.08,1.267a7.609,7.609,0,0,1-4.765-1.728C371.71,274.6,371.02,273.17,371.985,273.335Z" fill="#fff"/>
              <path id="Tracé_73" data-name="Tracé 73" d="M370.719,271.583c.685-.952,1.735-.369,2.068.538a2.1,2.1,0,0,1,.115.557.448.448,0,0,1,.043.14,4.93,4.93,0,0,1-.778,3.143c-.724.939-1.877-.037-2.113-.867A4.423,4.423,0,0,1,370.719,271.583Z" fill="#ff813b"/>
            </g>
          </g>
          <g id="Groupe_18" data-name="Groupe 18" transform="translate(-124.558 229.835)">
            <path id="Tracé_74" data-name="Tracé 74" d="M88.1,131.616c.92,1.9,2.459,3.111,4.01,4.473.351.309.991.4,1.126-.172a17.7,17.7,0,0,1,1.317-3.755,1.672,1.672,0,0,0-.211-1.36,5.252,5.252,0,0,0,.5-.233c.8-.426-.314-1.945-.992-1.9a12.616,12.616,0,0,0-5.627,1.785C87.862,130.7,87.942,131.287,88.1,131.616Z"/>
            <path id="Tracé_75" data-name="Tracé 75" d="M92.6,136.46c1.772.5,18.063,4.154,32.488,7.467-1.454,5.13-2.928,10.258-4.353,15.4-.738,2.657-1.626,5.2-.821,7.93.681,2.307,1.02,2.85,3.053,3.645a24.589,24.589,0,0,0,5.895,1.864c.026.384.058.768.11,1.154.107.768,1.271,2.158,2.044,1.326a8.233,8.233,0,0,0,1.2-1.722c.372.085.744.17,1.113.26,1.459.354,2.911.757,4.36,1.168.01.24,0,.483.023.721.068.762,1.344,2.977,2.262,1.8a9.675,9.675,0,0,0,.988-1.588c1.354.386,2.713.766,4.077,1.11a11.471,11.471,0,0,0,.206,2.271c.118.583,1.189,2.267,2,1.6a4.768,4.768,0,0,0,1.6-3.041c.043.009.087.021.13.029,2.37.43,6.179,1.389,8.307-.413,2.681-2.27,3.426-6.007,4.254-9.279,1.229-4.859,2.147-9.779,2.907-14.729,11.661,2.995,21.81,5.852,24.581,7.379,7.291,4.014,13.752,17.551,17.438,18.384.69.156-1.053-2.113-1.429-2.748q-.439-.739-.876-1.48c-2.745-12.858,3-23.409,6.74-35.43a.675.675,0,0,0-.013-.337c1.086-.987,2.165-1.987,3.248-2.984.656-.6,1.018-1.86.191-2.049-3.384-.764-13.832,12.194-22.329,13.515-4.12.641-19.337-1.973-35.73-5.239.471-2.206.9-4.424,1.263-6.65.111-.689-1.156-2.242-1.48-1.173-.734,2.438-1.407,4.9-2.047,7.372-2.1-.421-4.222-.857-6.357-1.3.491-2.231.957-4.466,1.31-6.715.106-.669-1.086-2.212-1.456-1.154a55.362,55.362,0,0,0-1.941,7.436c-2.2-.461-4.4-.925-6.6-1.394a35.266,35.266,0,0,0,.955-7.384c0-.615-1.4-2.03-1.532-.994-.338,2.617-.777,5.293-1.29,7.979-21.332-4.571-40.294-9-42.744-9.382a.439.439,0,0,0-.106-.016C93.725,129,91.894,136.261,92.6,136.46Zm62.22,14.556c2.716.669,5.375,1.332,7.92,1.981-.637,3.4-1.22,6.811-2.012,10.176-.772,3.273-1.343,8.3-3.519,10.98-1.778,2.19-4.781,2.506-8.058,2.044.022-.1.04-.2.063-.3q1.056-4.677,2.113-9.358Q153.086,158.777,154.824,151.016Zm-7.794-1.9c1.344.324,2.686.647,4.011.971q-1.564,6.866-3.12,13.737c-.789,3.485-2.4,7.628-2.8,11.5-1.185-.327-2.352-.7-3.468-1.072,1.254-3.5,1.565-7.887,2.3-11.129C145.009,158.471,146.153,153.814,147.03,149.121ZM133.016,171.71c1.3-3.615,1.616-8.286,2.314-11.494.961-4.407,1.778-8.833,2.617-13.259q2.632.619,5.264,1.248c-1.016,4.021-1.847,8.1-2.757,12.139-.907,4.016-2.463,8.379-2.742,12.591-.5-.157-.971-.3-1.4-.412C135.222,172.235,134.12,171.969,133.016,171.71Zm-10.994-8.669c1.746-6.2,3.625-12.376,5.168-18.632,4.233.974,2.841.686,7.366,1.746-1.152,4.351-2.3,8.7-3.3,13.1-.861,3.776-2.188,7.623-2.392,11.491-1.64-.385-1.3-.426-2.945-.8C123.4,169.377,120.43,168.7,122.022,163.041Z" fill="#f3ba00"/>
            <path id="Tracé_76" data-name="Tracé 76" d="M209.713,178.337c9.516-6.234,15.971-37.257,7.343-43.352-3.521-2.487-7.128.9-9.731,6.171C200.268,155.446,199.769,184.848,209.713,178.337Z" fill="#ffae39"/>
            <path id="Tracé_77" data-name="Tracé 77" d="M210.833,176.578c8.642-5.66,14.5-33.83,6.67-39.364-3.2-2.261-6.474.815-8.837,5.6C202.257,155.793,201.806,182.494,210.833,176.578Z" fill="#ff970d"/>
            <g id="Groupe_17" data-name="Groupe 17">
              <path id="Tracé_78" data-name="Tracé 78" d="M204.435,171.593c-1.4-7.573.281-20.776,4.231-28.776a20.065,20.065,0,0,1,2.235-3.6C213.653,147.578,210.112,164.1,204.435,171.593Z" fill="#e87e00"/>
            </g>
            <path id="Tracé_79" data-name="Tracé 79" d="M154.2,133.09l.037-.023a.689.689,0,0,1,.576-.484,8.622,8.622,0,0,1,4.209,1.11c.687.42,2.162,2.529.669,2.9a5.714,5.714,0,0,1-2.453-.257,6.778,6.778,0,0,1-1.342-.351,2.673,2.673,0,0,1-.685-.377c.063.047-1-1-.563-.615C154.233,134.629,153.532,133.554,154.2,133.09Z" fill="#ff813b"/>
            <path id="Tracé_80" data-name="Tracé 80" d="M145.4,131.1l.037-.024a.686.686,0,0,1,.575-.481,8.623,8.623,0,0,1,4.21,1.108c.685.42,2.161,2.53.668,2.9a5.646,5.646,0,0,1-2.452-.258,6.65,6.65,0,0,1-1.343-.35,2.6,2.6,0,0,1-.686-.379c.066.052-1-1-.562-.613C145.432,132.639,144.73,131.564,145.4,131.1Z" fill="#ff813b"/>
            <path id="Tracé_81" data-name="Tracé 81" d="M136.6,129.109c.012-.007.024-.017.036-.025a.685.685,0,0,1,.576-.48,8.611,8.611,0,0,1,4.208,1.106c.686.421,2.164,2.531.67,2.9a5.638,5.638,0,0,1-2.451-.255,6.7,6.7,0,0,1-1.345-.35,2.794,2.794,0,0,1-.687-.379c.066.05-1-1-.56-.615C136.63,130.648,135.928,129.573,136.6,129.109Z" fill="#ff813b"/>
          </g>
          <path id="Tracé_82" data-name="Tracé 82" d="M154.47,68.7c.106-.449-.25-.5-.641-.381a.509.509,0,0,0-.242-.177,107.449,107.449,0,0,0-12.03-3.767c-.258-.31-1.249.125-1.41.539A166.738,166.738,0,0,0,134.639,82c-1.751-1.291-5.026-1.226-6.731-.81-1.836.446-3.709,2.33-2.711,3.807.809,1.477,3.839,1.968,5.188,2.087,1.9.169,5.853-.851,5.387-3.318,1.672-4.483,3.184-9.153,4.469-13.82A66.483,66.483,0,0,0,151.38,73.37c-1.455,4.142-2.767,8.4-3.88,12.63-1.752-1.292-5.025-1.226-6.731-.811-1.835.446-3.709,2.331-2.711,3.807.808,1.477,3.838,1.969,5.187,2.087,1.906.169,5.854-.85,5.389-3.318A162.356,162.356,0,0,0,154.47,68.7Z" transform="translate(-204 230.379)"/>
          <path id="Tracé_83" data-name="Tracé 83" d="M167.206,399.838c-.085-.355-.355-.264-.586-.039a.4.4,0,0,0-.234-.037,84.586,84.586,0,0,0-9.81,1.658c-.292-.126-.833.536-.8.884a131.138,131.138,0,0,0,2.244,13.987c-1.694-.281-3.974.937-5.024,1.841-1.132.971-1.774,2.967-.543,3.648,1.1.748,3.406.01,4.4-.39,1.4-.564,3.811-2.7,2.6-4.263-.428-3.751-1.038-7.578-1.8-11.319a52.523,52.523,0,0,0,9.06-1.581c.46,3.433,1.063,6.9,1.795,10.273-1.7-.282-3.973.936-5.025,1.84-1.13.97-1.774,2.967-.543,3.646,1.1.75,3.4.011,4.4-.388,1.4-.564,3.812-2.694,2.6-4.263A128.1,128.1,0,0,0,167.206,399.838Z"/>
          <path id="Tracé_84" data-name="Tracé 84" d="M233.317,293.447a4.362,4.362,0,0,0-.472,1.333c-.07.273-.388.691-.573,1.126a5.371,5.371,0,0,0-.2.67,1.06,1.06,0,0,0-.037.215.774.774,0,0,0-.276-.147c-1.228-.415-1.461-1.628-1.536-2.781s-1.757,0-1.812.743a4.375,4.375,0,0,0,.348,2.212c.253,3.911.678,7.889,1.285,11.765-1.674-.38-4.022.7-5.122,1.545-1.187.9-1.945,2.858-.756,3.61,1.053.811,3.4.209,4.413-.133,1.43-.481,3.961-2.467,2.842-4.105-.123-2.242-.792-7.427-1.313-11.258.082.047.156.1.244.143a2.4,2.4,0,0,0,3-.831,14.885,14.885,0,0,0,1.164-2.514,3.611,3.611,0,0,0,.225-.617c.038-.146.077-.292.118-.437,1.166.229,1.748,1.924,1.857,2.9.141,1.253,1.928.011,1.971-.808C238.839,293.081,235.308,290.493,233.317,293.447Z" transform="translate(37.442 -21.998)"/>
          <path id="Tracé_85" data-name="Tracé 85" d="M256.076,176.484a4.392,4.392,0,0,0,.343,1.372c.093.265.059.79.145,1.254a4.873,4.873,0,0,0,.2.669.932.932,0,0,0,.087.2.776.776,0,0,0-.311.03c-1.253.332-2.117-.551-2.816-1.469s-1.463.971-1.1,1.62a4.377,4.377,0,0,0,1.512,1.651c2.371,3.12,4.923,6.2,7.569,9.1-1.606.61-2.964,2.809-3.416,4.117-.49,1.409-.043,3.458,1.364,3.428,1.324.094,2.949-1.705,3.6-2.548.926-1.192,1.938-4.246.1-4.992-1.341-1.8-4.761-5.754-7.312-8.66.094-.007.184,0,.282-.017a2.4,2.4,0,0,0,2.042-2.349,15.025,15.025,0,0,0-.419-2.738,3.737,3.737,0,0,0-.153-.639c-.048-.143-.1-.285-.144-.429,1.1-.454,2.521.64,3.148,1.388.808.967,1.613-1.056,1.2-1.762C260.478,173.127,256.105,172.921,256.076,176.484Z"/>
          <path id="Tracé_86" data-name="Tracé 86" d="M296.225,210.317c-36.342-5.408-40.561,34.452-8.825,47.168,12.779,5.118,23.976-4.866,26.822-16.993,3.1-13.224-3.7-28.021-17.905-30.161Z" transform="translate(8.179 -32.097)" fill="#f3ba00"/>
          <path id="Tracé_87" data-name="Tracé 87" d="M296.225,210.317c-36.342-5.408-40.561,34.452-8.825,47.168,12.779,5.118,23.976-4.866,26.822-16.993,3.1-13.224-3.7-28.021-17.905-30.161Z" transform="translate(59.531 140.744)" fill="#f3ba00"/>
          <path id="Tracé_88" data-name="Tracé 88" d="M287.985,210.18c-26.417-3.931-29.484,25.044-6.415,34.287,9.289,3.72,17.428-3.537,19.5-12.353,2.257-9.613-2.688-20.369-13.016-21.924Z" transform="translate(75.987 82.328)" fill="#f3ba00"/>
        </g>
      </g>
      <text id="Nation" transform="translate(342.793 184.668)" fill="#fff" font-size="73.896" font-family="Montserrat-Bold, Montserrat" font-weight="700"><tspan x="-259.153" y="0">Nation</tspan></text>
      <text id="SOUNDS" transform="translate(296.293 230.898)" fill="#fff" font-size="37.059" font-family="Montserrat-Light, Montserrat" font-weight="300"><tspan x="-166.358" y="0">SOUNDS</tspan></text>
      <text id="headline_text" data-name="headline text" transform="translate(372.595 88.437)" fill="#fff" font-size="17.642" font-family="SegoeUI, Segoe UI"><tspan x="-100.445" y="0">headline text</tspan></text>
    </g>
  </g>
</svg>
